inDegrees=no
num_controls=7
num_derivatives=13
num_iterations=18
num_multipliers=7
num_parameters=0
num_slacks=7
num_states=26
objective=0.462326
objective_accelerations=0.000000
objective_balance=0.001479
objective_effort=0.014593
objective_height=0.440938
objective_ligament=0.005315
solver_duration=257.664310
status=Solve_Succeeded
success=true
DataType=double
version=3
OpenSimVersion=4.5
endheader
time	/jointset/ground_pelvis/pelvis_tilt/value	/jointset/ground_pelvis/pelvis_tx/value	/jointset/ground_pelvis/pelvis_ty/value	/jointset/hip_l/hip_flexion_l/value	/jointset/hip_l/hip_adduction_l/value	/jointset/hip_l/hip_rotation_l/value	/jointset/back/lumbar_extension/value	/jointset/patellofemoral_l/patellar_flexion_l/value	/jointset/knee_l/knee_flexion_l/value	/jointset/knee_l/knee_adduction_l/value	/jointset/knee_l/knee_rotation_l/value	/jointset/ankle_l/ankle_angle_l/value	/jointset/subtalar_l/subtalar_angle_l/value	/jointset/ground_pelvis/pelvis_tilt/speed	/jointset/ground_pelvis/pelvis_tx/speed	/jointset/ground_pelvis/pelvis_ty/speed	/jointset/hip_l/hip_flexion_l/speed	/jointset/hip_l/hip_adduction_l/speed	/jointset/hip_l/hip_rotation_l/speed	/jointset/back/lumbar_extension/speed	/jointset/patellofemoral_l/patellar_flexion_l/speed	/jointset/knee_l/knee_flexion_l/speed	/jointset/knee_l/knee_adduction_l/speed	/jointset/knee_l/knee_rotation_l/speed	/jointset/ankle_l/ankle_angle_l/speed	/jointset/subtalar_l/subtalar_angle_l/speed	/forceset/tau_hip_flexion_l	/forceset/tau_hip_adduction_l	/forceset/tau_hip_rotation_l	/forceset/tau_knee_flexion_l	/forceset/tau_ankle_angle_l	/forceset/tau_subtalar_angle_l	/forceset/tau_lumbar_extension	lambda_cid13_p0	lambda_cid13_p1	lambda_cid13_p2	lambda_cid13_p3	lambda_cid13_p4	lambda_cid13_p5	lambda_cid14_p0	/jointset/ground_pelvis/pelvis_tilt/accel	/jointset/ground_pelvis/pelvis_tx/accel	/jointset/ground_pelvis/pelvis_ty/accel	/jointset/hip_l/hip_flexion_l/accel	/jointset/hip_l/hip_adduction_l/accel	/jointset/hip_l/hip_rotation_l/accel	/jointset/back/lumbar_extension/accel	/jointset/patellofemoral_l/patellar_flexion_l/accel	/jointset/knee_l/knee_flexion_l/accel	/jointset/knee_l/knee_adduction_l/accel	/jointset/knee_l/knee_rotation_l/accel	/jointset/ankle_l/ankle_angle_l/accel	/jointset/subtalar_l/subtalar_angle_l/accel	gamma_cid13_p0	gamma_cid13_p1	gamma_cid13_p2	gamma_cid13_p3	gamma_cid13_p4	gamma_cid13_p5	gamma_cid14_p0
1	-0.3268225792999682	0.08151346207635848	0.8434239490422635	0.7233080317072732	-0.3217334125008233	-0.2851055051583993	-0.1681187418976303	0.4528902008761231	0.4528902008761119	-0.01173221015352741	-0.01041727142276069	0.133835791951032	0.1248467958659713	-0.000682499720450918	0.0167455769755496	0.00627007447492446	-0.04207858098669872	0.007477062237036316	-0.02559759763031595	-0.008243464649393135	-0.03805950245887752	-0.03805950245887735	0.00984538761114879	-0.006772367956357227	0.004201249965051375	0.01283400369057097	-0.1547546233876771	0.1347388986968408	-0.003192435697922802	-0.06301977854033122	-0.08428337270774887	-0.01283210458646663	0.1508247092585804	-62.83233961013202	13.3567634322574	1.210044568803602	8.518822135215947	-557.2373686679377	-21.30041295606754	-36.22368694678498	0.8327808443911663	0.08101068990285744	0.2186300831543554	-1.559119648561501	0.2347542477724686	-0.2582185186826175	0.1467462745068374	-1.068616640805917	-1.068616640805917	0.1292330433140399	0.1153372035719913	-0.3502781430666829	0.05809412150990301	-6.464369734343858e-10	-2.770748855803149e-09	-1.178700043604081e-09	5.651472972984685e-10	-3.060693480748008e-09	7.658083123676765e-10	-8.089408137115501e-11
1.01	-0.3267883261693271	0.08168495338126555	0.8434974946491534	0.7228100681987251	-0.3216468824236016	-0.2853741250836161	-0.1681932064617071	0.4524564346076509	0.4524564346076084	-0.01162723496187108	-0.01047901237603565	0.133860364251621	0.1249781147669065	0.007528117025115725	0.01755416925191198	0.008438270043807605	-0.05751177113827505	0.009828205457351562	-0.02812277424445475	-0.006641095328521987	-0.04869593124197943	-0.04869593124197927	0.011144859923112	-0.005573420147713374	0.0007132137661283977	0.01342863347556399	-0.154722815572605	0.1348300749166697	-0.003219881381094227	-0.06276802534854492	-0.08443047559589152	-0.01287112181493092	0.1508175144387737	-62.87694947082546	13.36924104185358	1.222080214506613	8.485301217074966	-557.1910440458547	-21.26626883066665	-36.23422847459562	0.8144510391293965	0.08100632905631795	0.2157969991910452	-1.535066054578111	0.2351830996023023	-0.2491254671787997	0.1682351864920412	-1.061482994856683	-1.06148299485679	0.1295848459049206	0.1225338819766942	-0.3480660270249333	0.05997672057238953	-5.09727646625631e-10	-3.848080977844555e-09	-1.213827063807912e-09	2.307453857473692e-10	-3.820758886110044e-09	2.173037770480622e-10	-1.540642511154869e-11
1.02	-0.3266721170813203	0.08186457517544569	0.8435926987528202	0.7221578433174417	-0.3215368631660451	-0.2856678884218927	-0.168251396747451	0.4519162386517677	0.4519162386517557	-0.01150940894289435	-0.01052869178875879	0.1338500562564814	0.125115345828414	0.01570869175031225	0.01837167483016118	0.01060177383031718	-0.07293085553475745	0.01217489829531473	-0.03062628023457263	-0.004988608983012064	-0.0593454399368575	-0.05934543993685733	0.0124155530658002	-0.004360059840426941	-0.00277480918158658	0.01401643580369986	-0.1546910077575987	0.1349212511364304	-0.003247327064079968	-0.06251627215676049	-0.08457757848403848	-0.01291013904348573	0.1508103196189368	-62.92713509809995	13.38172183239596	1.235226880511795	8.454099671779195	-557.2320424637855	-21.24596289784404	-36.24696924114445	0.8267724403170998	0.08279335028028409	0.217691726679646	-1.556298497542765	0.2338641713020601	-0.2538843938784059	0.156769679434592	-1.071232623161183	-1.071232623161183	0.1234772094590281	0.1182197033005599	-0.3502754928250248	0.0567286301385142	-3.466517398632874e-10	-4.990026363229986e-09	-1.370835026797011e-09	-1.141334672565267e-10	-4.577217440062543e-09	-3.206903381456635e-10	6.86210000825633e-11
1.03	-0.3264742466045672	0.08205240740899247	0.8437095084462214	0.721351515870259	-0.3214034075825483	-0.2859865598635565	-0.1682928232679994	0.4512695043244435	0.4512695043243998	-0.01137903619410457	-0.01056616438416316	0.1338048655637638	0.1252584077594288	0.02386069003780731	0.01919533095725234	0.01275877345852842	-0.08833012632810638	0.01451492536151657	-0.03310397151238043	-0.003289177016229139	-0.07000145493295415	-0.07000145493295397	0.01365366052954182	-0.00313305189819481	-0.006263583400759879	0.01459389042650492	-0.1545852979844714	0.1350022106657464	-0.00327237879373128	-0.0622146519395665	-0.0847370425805665	-0.01296843480441825	0.1507483130212616	-62.97636436577672	13.40130431266577	1.248501814564065	8.445232923825497	-557.1599638383541	-21.21055666476661	-36.26188661333771	0.8087068902507545	0.08223551184588362	0.2144943008804162	-1.531064918982706	0.2338791839918758	-0.2441063302187588	0.1776576718734919	-1.062790379430168	-1.062790379430275	0.1231758594664656	0.1251523689011614	-0.348216709221576	0.05794604324151519	-1.833067863667233e-10	-6.132631067629133e-09	-1.529086672875757e-09	-4.591192278262674e-10	-5.33363918940882e-09	-8.585772041544312e-10	1.528376065923337e-10
1.04	-0.3261949974714696	0.08224849295739341	0.8438478461799034	0.7203913310053982	-0.3212465902864017	-0.2863298871851351	-0.1683170299255642	0.4505162089588173	0.4505162089588048	-0.01123644270170321	-0.01059132469433065	0.1337247794643075	0.1254071826696569	0.03198442301673479	0.02002233780098673	0.01490738188647349	-0.1037023390715351	0.01684724081622044	-0.03555745620966782	-0.001544636386464952	-0.08065764759290345	-0.08065764759290328	0.01485970177870021	-0.001897602787300135	-0.009753890530256009	0.01515903164491771	-0.1544795882114118	0.1350831701949952	-0.003297430523185082	-0.06191303172237519	-0.08489650667709905	-0.01302673056544064	0.1506863064235547	-63.03117967817062	13.42087969994833	1.262903200151888	8.438563755557189	-557.1754174875175	-21.18919165944371	-36.2789586394068	0.8211193786035598	0.0834634936089732	0.2160134866264172	-1.550886887558758	0.2323218490024865	-0.249043077774311	0.1657914120308494	-1.071268155931752	-1.071268155931752	0.1170639665423944	0.1199079370331144	-0.3505820748895517	0.05426594926010452	-3.845520146186716e-12	-7.309567837665257e-09	-1.776318990013331e-09	-8.079632067927848e-10	-6.089850822301027e-09	-1.386526507072748e-09	2.500518466200985e-10
1.05	-0.3258346450936643	0.08245285333267884	0.8440076225470257	0.7192775767844384	-0.3210664964625542	-0.2866976074732027	-0.1683235889839867	0.4496563685870169	0.4496563685869727	-0.01108196762812364	-0.01060408528895862	0.1336097742855192	0.1255615306753488	0.04008172641232755	0.02084908032794467	0.01704592725908347	-0.1190417756598172	0.0191697656051621	-0.03798186601273063	0.0002383860039469696	-0.0913087083182296	-0.09130870831822943	0.01602931024508285	-0.0006538324650938425	-0.0132482284172047	0.01570729202909271	-0.154294989632771	0.1351515369824025	-0.003319702453003937	-0.06156320434354306	-0.08507110924703554	-0.01310430965505758	0.1505640235197351	-63.08596707746599	13.44768493043244	1.277454104946311	8.457721816668073	-557.0762592995897	-21.15367107859372	-36.29815306354548	0.8033874412229138	0.08218085818869218	0.2124790439049759	-1.524462190345935	0.2319554999909547	-0.2384300363914693	0.1853918478603814	-1.061767333782287	-1.061767333782391	0.1160072574556411	0.126714025888653	-0.3490223463620925	0.05461605110180928	1.76119380846974e-10	-8.487577484752537e-09	-2.026331953121493e-09	-1.156927755084201e-09	-6.846055889054045e-09	-1.914165261144488e-09	3.476722626953006e-10
